<svg width="75" height="75" viewBox="0 0 75 75" fill="none" xmlns="http://www.w3.org/2000/svg">
<circle cx="37.5" cy="37.5" r="37.5" fill="white"/>
<circle cx="37.5" cy="37.5" r="31.5" fill="#F9CE3B"/>
<g filter="url(#filter0_d_0_76)">
<path d="M50 38H45V34C45 31.7937 46.7938 30 49 30H49.5C50.3312 30 51 29.3313 51 28.5V25.5C51 24.6687 50.3312 24 49.5 24H49C43.475 24 39 28.475 39 34V49C39 50.6562 40.3438 52 42 52H50C51.6562 52 53 50.6562 53 49V41C53 39.3438 51.6562 38 50 38ZM32 38H27V34C27 31.7937 28.7937 30 31 30H31.5C32.3313 30 33 29.3313 33 28.5V25.5C33 24.6687 32.3313 24 31.5 24H31C25.475 24 21 28.475 21 34V49C21 50.6562 22.3438 52 24 52H32C33.6562 52 35 50.6562 35 49V41C35 39.3438 33.6562 38 32 38Z" fill="white"/>
</g>
<defs>
<filter id="filter0_d_0_76" x="17" y="22" width="40" height="40" filterUnits="userSpaceOnUse" color-interpolation-filters="sRGB">
<feFlood flood-opacity="0" result="BackgroundImageFix"/>
<feColorMatrix in="SourceAlpha" type="matrix" values="0 0 0 0 0 0 0 0 0 0 0 0 0 0 0 0 0 0 127 0" result="hardAlpha"/>
<feOffset dy="4"/>
<feGaussianBlur stdDeviation="2"/>
<feComposite in2="hardAlpha" operator="out"/>
<feColorMatrix type="matrix" values="0 0 0 0 0 0 0 0 0 0 0 0 0 0 0 0 0 0 0.25 0"/>
<feBlend mode="normal" in2="BackgroundImageFix" result="effect1_dropShadow_0_76"/>
<feBlend mode="normal" in="SourceGraphic" in2="effect1_dropShadow_0_76" result="shape"/>
</filter>
</defs>
</svg>
